<?xml version="1.0" encoding="UTF-8" standalone="yes"?>
<svg width="400" height="400" viewBox="0 0 400 400" fill="none" version="1.2" baseProfile="tiny-ps" xmlns="http://www.w3.org/2000/svg">
  <title>bimi-svg-tiny-12-ps</title>
  <g>
    <path d="M301.028 42.2778L136.745 0.0999454C134.515 -0.459708 132.208 1.37515 132.208 3.68172V66.5068C78.6855 66.171 49 105.235 49 171.366V291.755C49 324.003 69.9094 352.19 99.972 360.552L264.255 399.9C266.485 400.46 268.792 398.625 268.792 396.318V336.323C322.314 336.659 352 297.596 352 231.465V111.075C352 78.8271 331.091 50.6406 301.028 42.2778ZM298.108 223.421C298.108 259.331 288.65 278.927 241.829 265.871L180.096 251.28C177.79 250.645 175.56 252.396 175.56 254.862V310.711L102.82 290.796L102.896 179.401C102.896 143.491 112.354 123.895 159.175 136.951L220.908 151.662C223.214 152.298 225.444 150.547 225.444 148.08V90.8557L298.184 112.031L298.108 223.425V223.421Z" fill="#E36636"/>
  </g>
  <defs/>
</svg>